<svg width="24" height="24" viewBox="0 0 24 24" fill="none" xmlns="http://www.w3.org/2000/svg">
  <path fill="#000000" d="M12 0C5.373 0 0 5.373 0 12c0 5.302 3.438 9.8 8.206 11.39.6.11.823-.259.823-.578v-2.03c-3.338.727-4.043-1.586-4.043-1.586-.545-1.387-1.332-1.759-1.332-1.759-1.089-.745.082-.73.082-.73 1.205.085 1.838 1.24 1.838 1.24 1.07 1.832 2.805 1.303 3.492.997.107-.775.418-1.303.762-1.605-2.665-.303-5.466-1.332-5.466-5.934 0-1.31.47-2.377 1.243-3.217-.125-.303-.539-1.528.118-3.176 0 0 1.008-.322 3.305 1.23.957-.266 1.985-.399 3.005-.404 1.02.005 2.048.138 3.004.404 2.292-1.552 3.297-1.23 3.297-1.23.658 1.648.246 2.873.12 3.176.772.84 1.242 1.906 1.242 3.217 0 4.61-2.805 5.63-5.48 5.931.43.371.812 1.104.812 2.223v3.293c0 .323.222.688.827.578C20.563 21.8 24 17.302 24 12 24 5.373 18.627 0 12 0z"/>
</svg>

